<svg width="917" height="511" viewBox="0 0 917 511" fill="none" xmlns="http://www.w3.org/2000/svg">
<mask id="path-1-inside-1" fill="white">
<path fill-rule="evenodd" clip-rule="evenodd" d="M403.577 511C403.578 510.737 403.578 510.474 403.578 510.211C403.578 409.544 335.396 327.938 251.289 327.938C167.182 327.938 99 409.544 99 510.211C99 510.474 99.0005 510.737 99.0014 511H403.577Z"/>
</mask>
<path fill-rule="evenodd" clip-rule="evenodd" d="M403.577 511C403.578 510.737 403.578 510.474 403.578 510.211C403.578 409.544 335.396 327.938 251.289 327.938C167.182 327.938 99 409.544 99 510.211C99 510.474 99.0005 510.737 99.0014 511H403.577Z" fill="#FFCEF4"/>
<path d="M403.577 511V512H404.573L404.577 511.004L403.577 511ZM99.0014 511L98.0014 511.004L98.0049 512H99.0014V511ZM404.577 511.004C404.578 510.739 404.578 510.475 404.578 510.211H402.578C402.578 510.473 402.578 510.735 402.577 510.996L404.577 511.004ZM404.578 510.211C404.578 409.168 336.109 326.938 251.289 326.938V328.938C334.683 328.938 402.578 409.921 402.578 510.211H404.578ZM251.289 326.938C166.469 326.938 98 409.168 98 510.211H100C100 409.921 167.895 328.938 251.289 328.938V326.938ZM98 510.211C98 510.475 98.0005 510.739 98.0014 511.004L100.001 510.996C100 510.735 100 510.473 100 510.211H98ZM99.0014 512H403.577V510H99.0014V512Z" fill="#FF00C7" mask="url(#path-1-inside-1)"/>
<circle cx="254" cy="232" r="123.5" fill="#FFCEF4" stroke="#FF00C7"/>
<path d="M144.252 174.977L132.844 94.3447L200.549 120.16C187.448 127.466 177.658 134.107 168.982 142.485C160.345 150.827 152.831 160.874 144.252 174.977Z" fill="#FFCEF4" stroke="#FF00C7"/>
<path d="M363.485 174.977L374.893 94.3447L307.229 120.144C320.604 127.091 330.397 133.755 338.999 142.235C347.568 150.682 354.936 160.913 363.485 174.977Z" fill="#FFCEF4" stroke="#FF00C7"/>
<path d="M226.5 231C226.5 241.685 223.612 251.335 218.969 258.3C214.323 265.268 207.961 269.5 201 269.5C194.039 269.5 187.677 265.268 183.031 258.3C178.388 251.335 175.5 241.685 175.5 231C175.5 220.315 178.388 210.665 183.031 203.7C187.677 196.732 194.039 192.5 201 192.5C207.961 192.5 214.323 196.732 218.969 203.7C223.612 210.665 226.5 220.315 226.5 231Z" fill="white" stroke="#FF00C7"/>
<path d="M326.5 231C326.5 241.685 323.612 251.335 318.969 258.3C314.323 265.268 307.961 269.5 301 269.5C294.039 269.5 287.677 265.268 283.031 258.3C278.388 251.335 275.5 241.685 275.5 231C275.5 220.315 278.388 210.665 283.031 203.7C287.677 196.732 294.039 192.5 301 192.5C307.961 192.5 314.323 196.732 318.969 203.7C323.612 210.665 326.5 220.315 326.5 231Z" fill="white" stroke="#FF00C7"/>
<path d="M252 282C252 301.5 281 301.5 281 282" stroke="black"/>
<path d="M251 282C251 301.5 222 301.5 222 282" stroke="black"/>
<path d="M266 272.5H251.5H237" stroke="black"/>
<line x1="251.5" y1="282" x2="251.5" y2="273" stroke="black"/>
<rect x="543.1" y="212" width="10" height="36" transform="rotate(13.0029 543.1 212)" fill="#FFAEED"/>
<rect width="10" height="36" transform="matrix(-0.974359 0.225 0.225 0.974359 772.744 213)" fill="#FFAEED"/>
<path d="M523 207H771L811 379H483L523 207Z" fill="#FFAEED"/>
<mask id="path-15-inside-2" fill="white">
<path fill-rule="evenodd" clip-rule="evenodd" d="M799.577 510C799.578 509.737 799.578 509.474 799.578 509.211C799.578 408.544 731.396 326.938 647.289 326.938C563.182 326.938 495 408.544 495 509.211C495 509.474 495 509.737 495.001 510H799.577Z"/>
</mask>
<path fill-rule="evenodd" clip-rule="evenodd" d="M799.577 510C799.578 509.737 799.578 509.474 799.578 509.211C799.578 408.544 731.396 326.938 647.289 326.938C563.182 326.938 495 408.544 495 509.211C495 509.474 495 509.737 495.001 510H799.577Z" fill="#8CE9D2"/>
<path d="M799.577 510V511H800.573L800.577 510.004L799.577 510ZM495.001 510L494.001 510.004L494.005 511H495.001V510ZM800.577 510.004C800.578 509.739 800.578 509.475 800.578 509.211H798.578C798.578 509.473 798.578 509.735 798.577 509.996L800.577 510.004ZM800.578 509.211C800.578 408.168 732.109 325.938 647.289 325.938V327.938C730.683 327.938 798.578 408.921 798.578 509.211H800.578ZM647.289 325.938C562.469 325.938 494 408.168 494 509.211H496C496 408.921 563.895 327.938 647.289 327.938V325.938ZM494 509.211C494 509.475 494 509.739 494.001 510.004L496.001 509.996C496 509.735 496 509.473 496 509.211H494ZM495.001 511H799.577V509H495.001V511Z" fill="#216958" mask="url(#path-15-inside-2)"/>
<circle cx="647" cy="230" r="123.5" fill="#FFEAE6" stroke="#D94E00"/>
<path d="M647 293C647 312.5 676 312.5 676 293" stroke="black"/>
<path d="M646 293C646 312.5 617 312.5 617 293" stroke="black"/>
<path d="M622.5 230C622.5 240.685 619.612 250.335 614.969 257.3C610.323 264.268 603.961 268.5 597 268.5C590.039 268.5 583.677 264.268 579.031 257.3C574.388 250.335 571.5 240.685 571.5 230C571.5 219.315 574.388 209.665 579.031 202.7C583.677 195.732 590.039 191.5 597 191.5C603.961 191.5 610.323 195.732 614.969 202.7C619.612 209.665 622.5 219.315 622.5 230Z" fill="white" stroke="black"/>
<path d="M722.5 230C722.5 240.685 719.612 250.335 714.969 257.3C710.323 264.268 703.961 268.5 697 268.5C690.039 268.5 683.677 264.268 679.031 257.3C674.388 250.335 671.5 240.685 671.5 230C671.5 219.315 674.388 209.665 679.031 202.7C683.677 195.732 690.039 191.5 697 191.5C703.961 191.5 710.323 195.732 714.969 202.7C719.612 209.665 722.5 219.315 722.5 230Z" fill="white" stroke="black"/>
<mask id="path-22-inside-3" fill="white">
<path fill-rule="evenodd" clip-rule="evenodd" d="M773.777 197H519.223C530.485 139.506 583.187 96 646.5 96C709.813 96 762.515 139.506 773.777 197Z"/>
</mask>
<path fill-rule="evenodd" clip-rule="evenodd" d="M773.777 197H519.223C530.485 139.506 583.187 96 646.5 96C709.813 96 762.515 139.506 773.777 197Z" fill="#3300FF"/>
<path d="M519.223 197L518.242 196.808L518.009 198H519.223V197ZM773.777 197V198H774.991L774.758 196.808L773.777 197ZM519.223 198H773.777V196H519.223V198ZM520.205 197.192C531.371 140.188 583.644 97 646.5 97V95C582.73 95 529.6 138.824 518.242 196.808L520.205 197.192ZM646.5 97C709.356 97 761.629 140.188 772.795 197.192L774.758 196.808C763.4 138.824 710.27 95 646.5 95V97Z" fill="#3300FF" mask="url(#path-22-inside-3)"/>
<rect x="523" y="198" width="248" height="21" fill="#FFAEED"/>
<path d="M519 188L844 175V209H519V188Z" fill="#7F5FFF"/>
<circle cx="649.5" cy="146.5" r="22" fill="#8CE9D2" stroke="#216958"/>
<line x1="651.498" y1="131.958" x2="652.498" y2="143.958" stroke="#216958"/>
<line x1="650.951" y1="132.385" x2="659.951" y2="131.502" stroke="#216958"/>
<line x1="651.951" y1="138.385" x2="660.951" y2="137.502" stroke="#216958"/>
<line x1="651.951" y1="144.385" x2="660.951" y2="143.502" stroke="#216958"/>
<line y1="-0.5" x2="13.8822" y2="-0.5" transform="matrix(0.0720346 0.997402 -0.995409 0.0957124 636 133.154)" stroke="#216958"/>
<line y1="-0.5" x2="13.8822" y2="-0.5" transform="matrix(0.0720346 0.997402 -0.995409 0.0957124 645 132)" stroke="#216958"/>
<line x1="636.945" y1="139.503" x2="645.945" y2="138.503" stroke="#216958"/>
<line x1="637.354" y1="148.646" x2="643.354" y2="154.646" stroke="#216958"/>
<line x1="647.434" y1="147.248" x2="643.434" y2="154.248" stroke="#216958"/>
<line x1="644.505" y1="161.071" x2="643.505" y2="154.071" stroke="#216958"/>
<line x1="652.522" y1="159.853" x2="656.522" y2="146.853" stroke="#216958"/>
<line x1="656.404" y1="146.706" x2="664.404" y2="157.706" stroke="#216958"/>
<line x1="653.863" y1="153.519" x2="660.863" y2="151.519" stroke="#216958"/>
</svg>
