<svg width="917" height="511" viewBox="0 0 917 511" fill="none" xmlns="http://www.w3.org/2000/svg">
<mask id="path-1-inside-1" fill="white">
<path fill-rule="evenodd" clip-rule="evenodd" d="M403.577 511C403.578 510.737 403.578 510.474 403.578 510.211C403.578 409.544 335.396 327.938 251.289 327.938C167.182 327.938 99 409.544 99 510.211C99 510.474 99.0005 510.737 99.0014 511H403.577Z"/>
</mask>
<path fill-rule="evenodd" clip-rule="evenodd" d="M403.577 511C403.578 510.737 403.578 510.474 403.578 510.211C403.578 409.544 335.396 327.938 251.289 327.938C167.182 327.938 99 409.544 99 510.211C99 510.474 99.0005 510.737 99.0014 511H403.577Z" fill="#FFCEF4"/>
<path d="M403.577 511V512H404.573L404.577 511.004L403.577 511ZM99.0014 511L98.0014 511.004L98.0049 512H99.0014V511ZM404.577 511.004C404.578 510.739 404.578 510.475 404.578 510.211H402.578C402.578 510.473 402.578 510.735 402.577 510.996L404.577 511.004ZM404.578 510.211C404.578 409.168 336.109 326.938 251.289 326.938V328.938C334.683 328.938 402.578 409.921 402.578 510.211H404.578ZM251.289 326.938C166.469 326.938 98 409.168 98 510.211H100C100 409.921 167.895 328.938 251.289 328.938V326.938ZM98 510.211C98 510.475 98.0005 510.739 98.0014 511.004L100.001 510.996C100 510.735 100 510.473 100 510.211H98ZM99.0014 512H403.577V510H99.0014V512Z" fill="#FF00C7" mask="url(#path-1-inside-1)"/>
<circle cx="254" cy="232" r="123.5" fill="#FFCEF4" stroke="#FF00C7"/>
<path d="M144.252 174.977L132.844 94.3447L200.549 120.16C187.448 127.466 177.658 134.107 168.982 142.485C160.345 150.827 152.831 160.874 144.252 174.977Z" fill="#FFCEF4" stroke="#FF00C7"/>
<path d="M363.485 174.977L374.893 94.3447L307.229 120.144C320.604 127.091 330.397 133.755 338.999 142.235C347.568 150.682 354.936 160.913 363.485 174.977Z" fill="#FFCEF4" stroke="#FF00C7"/>
<path d="M226.5 231C226.5 241.685 223.612 251.335 218.969 258.3C214.323 265.268 207.961 269.5 201 269.5C194.039 269.5 187.677 265.268 183.031 258.3C178.388 251.335 175.5 241.685 175.5 231C175.5 220.315 178.388 210.665 183.031 203.7C187.677 196.732 194.039 192.5 201 192.5C207.961 192.5 214.323 196.732 218.969 203.7C223.612 210.665 226.5 220.315 226.5 231Z" fill="white" stroke="#FF00C7"/>
<path d="M326.5 231C326.5 241.685 323.612 251.335 318.969 258.3C314.323 265.268 307.961 269.5 301 269.5C294.039 269.5 287.677 265.268 283.031 258.3C278.388 251.335 275.5 241.685 275.5 231C275.5 220.315 278.388 210.665 283.031 203.7C287.677 196.732 294.039 192.5 301 192.5C307.961 192.5 314.323 196.732 318.969 203.7C323.612 210.665 326.5 220.315 326.5 231Z" fill="white" stroke="#FF00C7"/>
<path d="M252 282C252 301.5 281 301.5 281 282" stroke="black"/>
<path d="M251 282C251 301.5 222 301.5 222 282" stroke="black"/>
<path d="M266 272.5H251.5H237" stroke="black"/>
<line x1="251.5" y1="282" x2="251.5" y2="273" stroke="black"/>
<rect x="543.1" y="212" width="10" height="36" transform="rotate(13.0029 543.1 212)" fill="#FFAEED"/>
<rect width="10" height="36" transform="matrix(-0.974359 0.225 0.225 0.974359 772.744 213)" fill="#FFAEED"/>
<path d="M524 207H772L812 379H484L524 207Z" fill="#FFAEED"/>
<mask id="path-15-inside-2" fill="white">
<path fill-rule="evenodd" clip-rule="evenodd" d="M800.577 510C800.578 509.737 800.578 509.474 800.578 509.211C800.578 408.544 732.396 326.938 648.289 326.938C564.182 326.938 496 408.544 496 509.211C496 509.474 496 509.737 496.001 510H800.577Z"/>
</mask>
<path fill-rule="evenodd" clip-rule="evenodd" d="M800.577 510C800.578 509.737 800.578 509.474 800.578 509.211C800.578 408.544 732.396 326.938 648.289 326.938C564.182 326.938 496 408.544 496 509.211C496 509.474 496 509.737 496.001 510H800.577Z" fill="#8CE9D2"/>
<path d="M800.577 510V511H801.573L801.577 510.004L800.577 510ZM496.001 510L495.001 510.004L495.005 511H496.001V510ZM801.577 510.004C801.578 509.739 801.578 509.475 801.578 509.211H799.578C799.578 509.473 799.578 509.735 799.577 509.996L801.577 510.004ZM801.578 509.211C801.578 408.168 733.109 325.938 648.289 325.938V327.938C731.683 327.938 799.578 408.921 799.578 509.211H801.578ZM648.289 325.938C563.469 325.938 495 408.168 495 509.211H497C497 408.921 564.895 327.938 648.289 327.938V325.938ZM495 509.211C495 509.475 495 509.739 495.001 510.004L497.001 509.996C497 509.735 497 509.473 497 509.211H495ZM496.001 511H800.577V509H496.001V511Z" fill="#216958" mask="url(#path-15-inside-2)"/>
<circle cx="648" cy="230" r="123.5" fill="#FFEAE6" stroke="#D94E00"/>
<path d="M648 293C648 312.5 677 312.5 677 293" stroke="black"/>
<path d="M647 293C647 312.5 618 312.5 618 293" stroke="black"/>
<path d="M623.5 230C623.5 240.685 620.612 250.335 615.969 257.3C611.323 264.268 604.961 268.5 598 268.5C591.039 268.5 584.677 264.268 580.031 257.3C575.388 250.335 572.5 240.685 572.5 230C572.5 219.315 575.388 209.665 580.031 202.7C584.677 195.732 591.039 191.5 598 191.5C604.961 191.5 611.323 195.732 615.969 202.7C620.612 209.665 623.5 219.315 623.5 230Z" fill="white" stroke="black"/>
<path d="M723.5 230C723.5 240.685 720.612 250.335 715.969 257.3C711.323 264.268 704.961 268.5 698 268.5C691.039 268.5 684.677 264.268 680.031 257.3C675.388 250.335 672.5 240.685 672.5 230C672.5 219.315 675.388 209.665 680.031 202.7C684.677 195.732 691.039 191.5 698 191.5C704.961 191.5 711.323 195.732 715.969 202.7C720.612 209.665 723.5 219.315 723.5 230Z" fill="white" stroke="black"/>
<mask id="path-22-inside-3" fill="white">
<path fill-rule="evenodd" clip-rule="evenodd" d="M774.777 197H520.223C531.485 139.506 584.187 96 647.5 96C710.813 96 763.515 139.506 774.777 197Z"/>
</mask>
<path fill-rule="evenodd" clip-rule="evenodd" d="M774.777 197H520.223C531.485 139.506 584.187 96 647.5 96C710.813 96 763.515 139.506 774.777 197Z" fill="#3300FF"/>
<path d="M520.223 197L519.242 196.808L519.009 198H520.223V197ZM774.777 197V198H775.991L775.758 196.808L774.777 197ZM520.223 198H774.777V196H520.223V198ZM521.205 197.192C532.371 140.188 584.644 97 647.5 97V95C583.73 95 530.6 138.824 519.242 196.808L521.205 197.192ZM647.5 97C710.356 97 762.629 140.188 773.795 197.192L775.758 196.808C764.4 138.824 711.27 95 647.5 95V97Z" fill="#3300FF" mask="url(#path-22-inside-3)"/>
<rect x="524" y="198" width="248" height="21" fill="#FFAEED"/>
<path d="M520 188L845 175V209H520V188Z" fill="#7F5FFF"/>
</svg>
