<svg width="917" height="511" viewBox="0 0 917 511" fill="none" xmlns="http://www.w3.org/2000/svg">
<g clip-path="url(#clip0)">
<mask id="path-1-inside-1" fill="white">
<path fill-rule="evenodd" clip-rule="evenodd" d="M403.577 511C403.578 510.737 403.578 510.474 403.578 510.211C403.578 409.544 335.396 327.938 251.289 327.938C167.182 327.938 99 409.544 99 510.211C99 510.474 99.0005 510.737 99.0014 511H403.577Z"/>
</mask>
<path fill-rule="evenodd" clip-rule="evenodd" d="M403.577 511C403.578 510.737 403.578 510.474 403.578 510.211C403.578 409.544 335.396 327.938 251.289 327.938C167.182 327.938 99 409.544 99 510.211C99 510.474 99.0005 510.737 99.0014 511H403.577Z" fill="#FFCEF4"/>
<path d="M403.577 511V512H404.573L404.577 511.004L403.577 511ZM99.0014 511L98.0014 511.004L98.0049 512H99.0014V511ZM404.577 511.004C404.578 510.739 404.578 510.475 404.578 510.211H402.578C402.578 510.473 402.578 510.735 402.577 510.996L404.577 511.004ZM404.578 510.211C404.578 409.168 336.109 326.938 251.289 326.938V328.938C334.683 328.938 402.578 409.921 402.578 510.211H404.578ZM251.289 326.938C166.469 326.938 98 409.168 98 510.211H100C100 409.921 167.895 328.938 251.289 328.938V326.938ZM98 510.211C98 510.475 98.0005 510.739 98.0014 511.004L100.001 510.996C100 510.735 100 510.473 100 510.211H98ZM99.0014 512H403.577V510H99.0014V512Z" fill="#FF00C7" mask="url(#path-1-inside-1)"/>
<path d="M388.516 299.376C372.166 363.216 310.738 401.632 245.593 384.947C180.463 368.267 140.63 292.979 156.984 229.124C173.331 165.297 242.32 124.301 307.478 140.989C340.018 149.322 364.366 172.928 378.54 202.465C392.715 232.006 396.693 267.446 388.516 299.376Z" fill="#FFCEF4" stroke="#FF00C7"/>
<path d="M462.971 268.4C462.971 271.17 462.12 273.362 460.419 274.976C458.74 276.59 456.864 277.397 454.792 277.397C452.284 277.397 451.03 276.296 451.03 274.093C451.03 272.326 451.695 270.843 453.025 269.644C454.378 268.422 455.904 267.812 457.605 267.812C458.631 267.812 459.612 268.008 460.55 268.4V253.744L442.524 258.619V271.508C442.524 274.038 441.771 276.154 440.267 277.855C438.784 279.556 436.788 280.407 434.28 280.407C433.037 280.407 432.099 280.112 431.466 279.523C430.834 278.956 430.518 278.182 430.518 277.201C430.518 275.543 431.161 274.082 432.448 272.817C433.756 271.53 435.218 270.887 436.832 270.887C438.009 270.887 439.1 271.094 440.103 271.508V246.907L462.971 241.083V268.4ZM442.524 254.464L460.55 249.589V245.762L442.524 250.734V254.464Z" fill="#FF00C7"/>
<path d="M888.971 269.4C888.971 272.17 888.12 274.362 886.419 275.976C884.74 277.59 882.864 278.397 880.792 278.397C878.284 278.397 877.03 277.296 877.03 275.093C877.03 273.326 877.695 271.843 879.025 270.644C880.378 269.422 881.904 268.812 883.605 268.812C884.631 268.812 885.612 269.008 886.55 269.4V254.744L868.524 259.619V272.508C868.524 275.038 867.771 277.154 866.267 278.855C864.784 280.556 862.788 281.407 860.28 281.407C859.037 281.407 858.099 281.112 857.466 280.523C856.834 279.956 856.518 279.182 856.518 278.201C856.518 276.543 857.161 275.082 858.448 273.817C859.756 272.53 861.218 271.887 862.832 271.887C864.009 271.887 865.1 272.094 866.103 272.508V247.907L888.971 242.083V269.4ZM868.524 255.464L886.55 250.589V246.762L868.524 251.734V255.464Z" fill="#3300FF"/>
<path d="M179.001 245.355L165.741 152.357L243.797 182.217C228.695 190.622 217.429 198.253 207.453 207.892C197.515 217.494 188.877 229.072 179.001 245.355Z" fill="#FFCEF4" stroke="#FF00C7"/>
<path d="M391.587 249.025L429.523 190.261L365.869 181.716C374.19 193.105 378.838 201.92 382.294 211.891C385.275 220.493 387.366 229.953 390.172 242.644C390.623 244.684 391.093 246.808 391.587 249.025Z" fill="#FFCEF4" stroke="#FF00C7"/>
<path d="M302 345.5C302 365 331 365 331 345.5" stroke="black"/>
<path d="M301 345.5C301 365 272 365 272 345.5" stroke="black"/>
<path d="M316 336H301.5H287" stroke="black"/>
<line x1="301.5" y1="345.5" x2="301.5" y2="336.5" stroke="black"/>
<path d="M284 311.573L224.5 301.5M378 301.5L324.5 311.573" stroke="black"/>
<path d="M563 225L804.125 268.254L813.398 444.601L490.463 387.181L563 225Z" fill="#FFAEED"/>
<mask id="path-14-inside-2" fill="white">
<path fill-rule="evenodd" clip-rule="evenodd" d="M801.577 543C801.578 542.737 801.578 542.474 801.578 542.211C801.578 441.544 733.396 359.938 649.289 359.938C565.182 359.938 497 441.544 497 542.211C497 542.474 497 542.737 497.001 543H801.577Z"/>
</mask>
<path fill-rule="evenodd" clip-rule="evenodd" d="M801.577 543C801.578 542.737 801.578 542.474 801.578 542.211C801.578 441.544 733.396 359.938 649.289 359.938C565.182 359.938 497 441.544 497 542.211C497 542.474 497 542.737 497.001 543H801.577Z" fill="#8CE9D2"/>
<path d="M801.577 543V544H802.573L802.577 543.004L801.577 543ZM497.001 543L496.001 543.004L496.005 544H497.001V543ZM802.577 543.004C802.578 542.739 802.578 542.475 802.578 542.211H800.578C800.578 542.473 800.578 542.735 800.577 542.996L802.577 543.004ZM802.578 542.211C802.578 441.168 734.109 358.938 649.289 358.938V360.938C732.683 360.938 800.578 441.921 800.578 542.211H802.578ZM649.289 358.938C564.469 358.938 496 441.168 496 542.211H498C498 441.921 565.895 360.938 649.289 360.938V358.938ZM496 542.211C496 542.475 496 542.739 496.001 543.004L498.001 542.996C498 542.735 498 542.473 498 542.211H496ZM497.001 544H801.577V542H497.001V544Z" fill="#216958" mask="url(#path-14-inside-2)"/>
<path d="M796.343 304.391C782.877 371.256 717.756 414.544 650.891 401.077C617.465 394.345 592.971 375.477 578.508 349.945C564.041 324.406 559.596 292.171 566.336 258.703C579.802 191.839 644.923 148.551 711.788 162.017C745.214 168.749 769.708 187.618 784.171 213.149C798.638 238.689 803.083 270.924 796.343 304.391Z" fill="#FFEAE6" stroke="#D94E00"/>
<path d="M682.729 335.704L630 327.539M763.741 346.674L717.266 340.381" stroke="black"/>
<path d="M697.612 366.664C694.981 381.64 718.342 385.744 720.973 370.768" stroke="black"/>
<path d="M696.806 366.523C694.176 381.499 670.815 377.395 673.445 362.419" stroke="black"/>
<mask id="path-20-inside-3" fill="white">
<path fill-rule="evenodd" clip-rule="evenodd" d="M555 238.907L815.582 302.722C821.466 228.795 780.693 161.779 715.88 145.907C651.067 130.035 583.941 170.627 555 238.907Z"/>
</mask>
<path fill-rule="evenodd" clip-rule="evenodd" d="M555 238.907L815.582 302.722C821.466 228.795 780.693 161.779 715.88 145.907C651.067 130.035 583.941 170.627 555 238.907Z" fill="#3300FF"/>
<path d="M555 238.907L554.079 238.517L553.621 239.599L554.762 239.878L555 238.907ZM815.582 302.722L815.344 303.693L816.486 303.972L816.579 302.801L815.582 302.722ZM554.762 239.878L815.344 303.693L815.82 301.75L555.238 237.936L554.762 239.878ZM715.642 146.879C779.872 162.608 820.44 229.087 814.585 302.642L816.579 302.801C822.492 228.504 781.513 160.951 716.118 144.936L715.642 146.879ZM555.921 239.297C584.717 171.36 651.412 131.149 715.642 146.879L716.118 144.936C650.722 128.921 583.166 169.894 554.079 238.517L555.921 239.297Z" fill="#3300FF" mask="url(#path-20-inside-3)"/>
<rect x="564.035" y="242" width="248" height="25.3699" transform="rotate(13.7605 564.035 242)" fill="#FFAEED"/>
<path d="M554.641 235.418L873.803 305.087L868.672 326.04L549.5 248L554.641 235.418Z" fill="#7F5FFF"/>
</g>
<defs>
<clipPath id="clip0">
<rect width="917" height="511" fill="white"/>
</clipPath>
</defs>
</svg>
