 <svg width="158" height="173" viewBox="0 0 158 173" fill="none" xmlns="http://www.w3.org/2000/svg">
<path fill-rule="evenodd" clip-rule="evenodd" d="M53.9742 122C53.6706 122 53.3678 121.996 53.0656 121.989C49.2023 97.7779 33.3549 77.7199 12 68.4806C33.2321 59.2292 49.0199 39.2074 52.9978 15.0129C53.3224 15.0043 53.6479 15 53.9742 15C54.3005 15 54.626 15.0043 54.9506 15.0129C58.9285 39.2074 74.7163 59.2292 95.9484 68.4806C74.5936 77.7199 58.7462 97.7779 54.8828 121.989C54.5807 121.996 54.2778 122 53.9742 122Z" fill="#FFE600"/>
<path d="M115.5 158.5C115.436 158.5 115.373 158.5 115.309 158.499C112.611 142.388 102.239 128.99 88.2165 122.485C102.158 115.972 112.491 102.598 115.261 86.5012C115.341 86.5004 115.42 86.5 115.5 86.5C115.58 86.5 115.659 86.5004 115.739 86.5012C118.509 102.598 128.842 115.972 142.784 122.485C128.761 128.99 118.389 142.388 115.691 158.499C115.627 158.5 115.564 158.5 115.5 158.5Z" fill="#FFE600" stroke="black"/>
<path fill-rule="evenodd" clip-rule="evenodd" d="M53.9156 121C53.9351 121 53.9547 121 53.9742 121C53.9938 121 54.0133 121 54.0329 121C58.0448 97.5936 73.1249 78.106 93.5286 68.4774C73.2422 58.8373 58.2208 39.3844 54.1043 16.0002C54.061 16.0001 54.0176 16 53.9742 16C53.9308 16 53.8875 16.0001 53.8441 16.0002C49.7276 39.3844 34.7063 58.8372 14.4199 68.4774C34.8235 78.1059 49.9036 97.5936 53.9156 121ZM53.0656 121.989C49.2769 98.2456 33.9627 78.4964 13.2315 69.0281C12.8231 68.8416 12.4126 68.6591 12 68.4806C12.4121 68.301 12.8221 68.1174 13.23 67.9298C33.8405 58.4505 49.0971 38.7378 52.9978 15.0129C53.3224 15.0043 53.6479 15 53.9742 15C54.3005 15 54.626 15.0043 54.9506 15.0129C58.8513 38.7378 74.108 58.4505 94.7184 67.9298C95.1263 68.1174 95.5364 68.301 95.9484 68.4806C95.5359 68.6591 95.1254 68.8416 94.717 69.0281C73.9857 78.4965 58.6715 98.2456 54.8828 121.989C54.5807 121.996 54.2778 122 53.9742 122C53.6706 122 53.3678 121.996 53.0656 121.989Z" fill="black"/>
</svg>
