<svg width="917" height="511" viewBox="0 0 917 511" fill="none" xmlns="http://www.w3.org/2000/svg">
<mask id="path-1-inside-1" fill="white">
<path fill-rule="evenodd" clip-rule="evenodd" d="M403.577 511C403.578 510.737 403.578 510.474 403.578 510.211C403.578 409.544 335.396 327.938 251.289 327.938C167.182 327.938 99 409.544 99 510.211C99 510.474 99.0005 510.737 99.0014 511H403.577Z"/>
</mask>
<path fill-rule="evenodd" clip-rule="evenodd" d="M403.577 511C403.578 510.737 403.578 510.474 403.578 510.211C403.578 409.544 335.396 327.938 251.289 327.938C167.182 327.938 99 409.544 99 510.211C99 510.474 99.0005 510.737 99.0014 511H403.577Z" fill="#FFCEF4"/>
<path d="M403.577 511V512H404.573L404.577 511.004L403.577 511ZM99.0014 511L98.0014 511.004L98.0049 512H99.0014V511ZM404.577 511.004C404.578 510.739 404.578 510.475 404.578 510.211H402.578C402.578 510.473 402.578 510.735 402.577 510.996L404.577 511.004ZM404.578 510.211C404.578 409.168 336.109 326.938 251.289 326.938V328.938C334.683 328.938 402.578 409.921 402.578 510.211H404.578ZM251.289 326.938C166.469 326.938 98 409.168 98 510.211H100C100 409.921 167.895 328.938 251.289 328.938V326.938ZM98 510.211C98 510.475 98.0005 510.739 98.0014 511.004L100.001 510.996C100 510.735 100 510.473 100 510.211H98ZM99.0014 512H403.577V510H99.0014V512Z" fill="#FF00C7" mask="url(#path-1-inside-1)"/>
<circle cx="256.26" cy="235.661" r="123.5" transform="rotate(-12.4394 256.26 235.661)" fill="#FFCEF4" stroke="#FF00C7"/>
<path d="M136.805 203.618L108.296 127.336L179.972 137.961C168.753 147.917 160.623 156.511 153.956 166.561C147.318 176.568 142.145 187.998 136.805 203.618Z" fill="#FFCEF4" stroke="#FF00C7"/>
<path d="M350.892 156.394L344.663 75.1964L284.145 114.966C298.701 118.868 309.7 123.266 319.927 129.694C330.114 136.097 339.513 144.501 350.892 156.394Z" fill="#FFCEF4" stroke="#FF00C7"/>
<path d="M230.166 240.393C232.468 250.827 231.726 260.873 228.693 268.674C225.657 276.48 220.355 281.983 213.558 283.482C206.761 284.982 199.636 282.22 193.599 276.416C187.564 270.614 182.665 261.813 180.364 251.379C178.062 240.945 178.804 230.899 181.838 223.098C184.873 215.292 190.175 209.789 196.972 208.29C203.769 206.79 210.894 209.553 216.931 215.356C222.966 221.158 227.865 229.959 230.166 240.393Z" fill="white" stroke="#FF00C7"/>
<path d="M331.725 217.991C334.026 228.425 333.285 238.471 330.251 246.272C327.216 254.077 321.914 259.581 315.117 261.08C308.32 262.579 301.195 259.817 295.157 254.013C289.123 248.212 284.224 239.41 281.922 228.977C279.621 218.543 280.362 208.497 283.396 200.695C286.431 192.89 291.733 187.387 298.53 185.887C305.327 184.388 312.452 187.15 318.49 192.954C324.524 198.755 329.423 207.557 331.725 217.991Z" fill="white" stroke="#FF00C7"/>
<path d="M252 282C252 301.5 281 301.5 281 282" stroke="black"/>
<path d="M251 282C251 301.5 222 301.5 222 282" stroke="black"/>
<path d="M266 272.5H251.5H237" stroke="black"/>
<line x1="251.5" y1="282" x2="251.5" y2="273" stroke="black"/>
<path d="M519.091 256.903L747.199 159.586L851.485 302.093L549.794 430.804L519.091 256.903Z" fill="#FFAEED"/>
<mask id="path-13-inside-2" fill="white">
<path fill-rule="evenodd" clip-rule="evenodd" d="M799.577 510C799.578 509.737 799.578 509.474 799.578 509.211C799.578 408.544 731.396 326.938 647.289 326.938C563.182 326.938 495 408.544 495 509.211C495 509.474 495.001 509.737 495.001 510H799.577Z"/>
</mask>
<path fill-rule="evenodd" clip-rule="evenodd" d="M799.577 510C799.578 509.737 799.578 509.474 799.578 509.211C799.578 408.544 731.396 326.938 647.289 326.938C563.182 326.938 495 408.544 495 509.211C495 509.474 495.001 509.737 495.001 510H799.577Z" fill="#8CE9D2"/>
<path d="M799.577 510V511H800.573L800.577 510.004L799.577 510ZM495.001 510L494.001 510.004L494.005 511H495.001V510ZM800.577 510.004C800.578 509.739 800.578 509.475 800.578 509.211H798.578C798.578 509.473 798.578 509.735 798.577 509.996L800.577 510.004ZM800.578 509.211C800.578 408.168 732.109 325.938 647.289 325.938V327.938C730.683 327.938 798.578 408.921 798.578 509.211H800.578ZM647.289 325.938C562.469 325.938 494 408.168 494 509.211H496C496 408.921 563.895 327.938 647.289 327.938V325.938ZM494 509.211C494 509.475 494.001 509.739 494.001 510.004L496.001 509.996C496.001 509.735 496 509.473 496 509.211H494ZM495.001 511H799.577V509H495.001V511Z" fill="#216958" mask="url(#path-13-inside-2)"/>
<circle cx="642.17" cy="229.4" r="123.5" transform="rotate(-23.1046 642.17 229.4)" fill="#FFEAE6" stroke="#D94E00"/>
<path d="M647 293C647 312.5 676 312.5 676 293" stroke="black"/>
<path d="M646 293C646 312.5 617 312.5 617 293" stroke="black"/>
<path d="M619.635 239.014C623.828 248.841 624.959 258.851 623.421 267.079C621.882 275.311 617.691 281.701 611.289 284.432C604.886 287.164 597.373 285.768 590.366 281.181C583.362 276.597 576.919 268.854 572.726 259.027C568.533 249.199 567.403 239.189 568.941 230.961C570.479 222.729 574.671 216.34 581.073 213.608C587.475 210.877 594.988 212.273 601.995 216.859C608.999 221.443 615.443 229.186 619.635 239.014Z" fill="white" stroke="black"/>
<path d="M711.614 199.773C715.807 209.6 716.938 219.61 715.4 227.838C713.862 236.07 709.67 242.46 703.268 245.191C696.865 247.923 689.352 246.527 682.345 241.94C675.341 237.356 668.898 229.613 664.705 219.786C660.512 209.958 659.382 199.948 660.92 191.72C662.458 183.488 666.65 177.099 673.052 174.367C679.454 171.636 686.967 173.032 693.975 177.618C700.978 182.202 707.422 189.945 711.614 199.773Z" fill="white" stroke="black"/>
<mask id="path-20-inside-3" fill="white">
<path fill-rule="evenodd" clip-rule="evenodd" d="M745.829 149.298L511.693 249.187C499.49 191.886 530.892 131.189 589.127 106.344C647.362 81.4992 712.909 100.835 745.829 149.298Z"/>
</mask>
<path fill-rule="evenodd" clip-rule="evenodd" d="M745.829 149.298L511.693 249.187C499.49 191.886 530.892 131.189 589.127 106.344C647.362 81.4992 712.909 100.835 745.829 149.298Z" fill="#3300FF"/>
<path d="M511.693 249.187L510.715 249.396L510.968 250.584L512.085 250.107L511.693 249.187ZM745.829 149.298L746.221 150.218L747.338 149.741L746.656 148.736L745.829 149.298ZM512.085 250.107L746.221 150.218L745.436 148.378L511.301 248.268L512.085 250.107ZM512.671 248.979C500.572 192.166 531.705 131.929 589.52 107.264L588.735 105.424C530.08 130.448 498.408 191.606 510.715 249.396L512.671 248.979ZM589.52 107.264C647.335 82.5983 712.362 101.81 745.001 149.86L746.656 148.736C713.456 99.8604 647.39 80.4 588.735 105.424L589.52 107.264Z" fill="#3300FF" mask="url(#path-20-inside-3)"/>
<rect x="515.559" y="248.625" width="248" height="21" transform="rotate(-23.1046 515.559 248.625)" fill="#FFAEED"/>
<path d="M507.956 240.997L801.786 101.506L815.128 132.779L516.196 260.313L507.956 240.997Z" fill="#7F5FFF"/>
<circle cx="611.703" cy="151.616" r="22" transform="rotate(-23.1046 611.703 151.616)" fill="#8CE9D2" stroke="#216958"/>
<line x1="607.835" y1="137.457" x2="613.464" y2="148.102" stroke="#216958"/>
<line x1="607.499" y1="138.064" x2="615.431" y2="133.72" stroke="#216958"/>
<line x1="610.774" y1="143.19" x2="618.705" y2="138.847" stroke="#216958"/>
<line x1="613.128" y1="148.709" x2="621.06" y2="144.365" stroke="#216958"/>
<line y1="-0.5" x2="13.8822" y2="-0.5" transform="matrix(0.457647 0.889134 -0.878009 0.478644 594.049 144.638)" stroke="#216958"/>
<line y1="-0.5" x2="13.8822" y2="-0.5" transform="matrix(0.457647 0.889134 -0.878009 0.478644 601.874 140.045)" stroke="#216958"/>
<line x1="597.41" y1="150.107" x2="605.295" y2="145.656" stroke="#216958"/>
<line x1="601.374" y1="158.357" x2="609.247" y2="161.521" stroke="#216958"/>
<line x1="610.097" y1="153.115" x2="609.164" y2="161.123" stroke="#216958"/>
<line x1="612.827" y1="166.978" x2="609.16" y2="160.932" stroke="#216958"/>
<line x1="619.723" y1="162.712" x2="618.301" y2="149.185" stroke="#216958"/>
<line x1="618.135" y1="149.096" x2="629.81" y2="156.075" stroke="#216958"/>
<line x1="618.471" y1="156.36" x2="624.124" y2="151.774" stroke="#216958"/>
</svg>
